<svg width="14" height="15" viewBox="0 0 14 15" fill="none" xmlns="http://www.w3.org/2000/svg">
<path d="M3.33325 3.81067V2.27067C3.33334 2.02204 3.43217 1.78362 3.60801 1.60785C3.78384 1.43208 4.02229 1.33333 4.27092 1.33333H12.3956C12.6443 1.33333 12.8828 1.43212 13.0586 1.60797C13.2345 1.78381 13.3333 2.02231 13.3333 2.271V10.396C13.3332 10.6446 13.2343 10.883 13.0585 11.0588C12.8827 11.2346 12.6442 11.3333 12.3956 11.3333H10.8389" stroke="#58595B" stroke-width="1.33333" stroke-linecap="round" stroke-linejoin="round"/>
<path d="M9.72923 4H1.60356C1.355 4.00018 1.11667 4.09904 0.940965 4.27487C0.765263 4.4507 0.666565 4.6891 0.666565 4.93767V13.0623C0.666565 13.311 0.765355 13.5495 0.941201 13.7254C1.11705 13.9012 1.35555 14 1.60423 14H9.72923C9.97786 13.9999 10.2163 13.9011 10.392 13.7252C10.5678 13.5494 10.6666 13.311 10.6666 13.0623V4.938C10.6666 4.81484 10.6424 4.69287 10.5953 4.57907C10.5482 4.46527 10.4791 4.36186 10.392 4.27475C10.305 4.18765 10.2016 4.11855 10.0878 4.07141C9.97402 4.02426 9.85206 4 9.7289 4H9.72923Z" stroke="#58595B" stroke-width="1.33333" stroke-linejoin="round"/>
</svg>
