<svg width="17" height="20" viewBox="0 0 17 20" fill="none" xmlns="http://www.w3.org/2000/svg">
<path d="M8.95191 5.75481V0H4.47595C3.96719 0 3.47927 0.202103 3.11953 0.561848C2.75978 0.921593 2.55768 1.40951 2.55768 1.91827V15.9856C2.55768 16.4943 2.75978 16.9823 3.11953 17.342C3.47927 17.7017 3.96719 17.9038 4.47595 17.9038H14.7067C15.2155 17.9038 15.7034 17.7017 16.0631 17.342C16.4229 16.9823 16.625 16.4943 16.625 15.9856V7.67308H10.8702C10.3614 7.67308 9.8735 7.47097 9.51376 7.11123C9.15401 6.75148 8.95191 6.26356 8.95191 5.75481Z" fill="#E6E6E6"/>
<path d="M10.2308 5.75481V0.31971L16.3053 6.39423H10.8702C10.7006 6.39423 10.538 6.32686 10.4181 6.20695C10.2981 6.08703 10.2308 5.92439 10.2308 5.75481Z" fill="#E6E6E6"/>
<path d="M0 3.83654C0 3.49737 0.134735 3.17209 0.374566 2.93226C0.614396 2.69243 0.939675 2.55769 1.27885 2.55769V15.9856C1.27885 16.8335 1.61568 17.6467 2.21526 18.2463C2.81484 18.8459 3.62803 19.1827 4.47596 19.1827H14.0673C14.0673 19.5219 13.9326 19.8471 13.6927 20.087C13.4529 20.3268 13.1276 20.4615 12.7885 20.4615H4.53735C3.33397 20.4615 2.17988 19.9835 1.32896 19.1326C0.47804 18.2817 0 17.1276 0 15.9242V3.83654Z" fill="#E6E6E6"/>
</svg>
