<svg width="16" height="16" viewBox="0 0 16 16" fill="none" xmlns="http://www.w3.org/2000/svg">
<path d="M16 1.33333V6C16 6.18056 15.934 6.33681 15.8021 6.46875C15.6701 6.60069 15.5139 6.66667 15.3333 6.66667H10.6667C10.375 6.66667 10.1701 6.52778 10.0521 6.25C9.93403 5.97917 9.98264 5.73958 10.1979 5.53125L11.6354 4.09375C10.6076 3.14236 9.39583 2.66667 8 2.66667C7.27778 2.66667 6.58854 2.80729 5.93229 3.08854C5.27604 3.36979 4.70833 3.75 4.22917 4.22917C3.75 4.70833 3.36979 5.27604 3.08854 5.93229C2.80729 6.58854 2.66667 7.27778 2.66667 8C2.66667 8.72222 2.80729 9.41146 3.08854 10.0677C3.36979 10.724 3.75 11.2917 4.22917 11.7708C4.70833 12.25 5.27604 12.6302 5.93229 12.9115C6.58854 13.1927 7.27778 13.3333 8 13.3333C8.82639 13.3333 9.60764 13.1528 10.3438 12.7917C11.0799 12.4306 11.7014 11.9201 12.2083 11.2604C12.2569 11.191 12.3368 11.1493 12.4479 11.1354C12.5521 11.1354 12.6389 11.1667 12.7083 11.2292L14.1354 12.6667C14.1979 12.7222 14.2309 12.7934 14.2344 12.8802C14.2378 12.967 14.2118 13.0451 14.1563 13.1146C13.3993 14.0313 12.4826 14.7413 11.4063 15.2448C10.3299 15.7483 9.19444 16 8 16C6.91667 16 5.88194 15.7882 4.89583 15.3646C3.90972 14.941 3.05903 14.3715 2.34375 13.6563C1.62847 12.941 1.05903 12.0903 0.635417 11.1042C0.211806 10.1181 0 9.08333 0 8C0 6.91667 0.211806 5.88194 0.635417 4.89583C1.05903 3.90972 1.62847 3.05903 2.34375 2.34375C3.05903 1.62847 3.90972 1.05903 4.89583 0.635417C5.88194 0.211806 6.91667 0 8 0C9.02083 0 10.0087 0.192708 10.9635 0.578125C11.9184 0.963542 12.7674 1.50694 13.5104 2.20833L14.8646 0.864583C15.066 0.649306 15.309 0.600694 15.5938 0.71875C15.8646 0.836806 16 1.04167 16 1.33333Z" fill="#58595B"/>
</svg>
