<svg width="128" height="40" viewBox="0 0 128 40" fill="none" xmlns="http://www.w3.org/2000/svg">
<path d="M90.622 19.0805C89.7978 21.0174 87.9434 22.2537 85.8828 22.2537H72.9015V6.09915H67.9562V27.199H85.8828C89.9627 27.199 93.5892 24.7675 95.1964 21.0174C95.32 20.7289 95.4437 20.3992 95.5261 20.1107C95.6497 19.7811 95.6909 19.4514 95.7734 19.0805H90.622Z" fill="#58595B"/>
<path d="M53.8622 27.1991H35.9356V15.454C35.9356 9.89061 40.4688 5.35745 46.0322 5.35745H63.5467V10.3027H46.0322C43.1887 10.3027 40.8809 12.6105 40.8809 15.454V22.2538H53.8622C55.7991 22.2538 57.4887 21.1823 58.3954 19.5751H54.7688V14.6298H63.9588V17.1025C63.9588 22.6659 59.4256 27.1991 53.8622 27.1991Z" fill="#58595B"/>
<path d="M103.026 27.1166H98.0811V5.60464H127.835V8.07728C127.835 14.1352 122.89 19.0805 116.832 19.0805H105.293V14.1352H116.832C119.305 14.1352 121.406 12.6516 122.354 10.5499H103.026V27.1166Z" fill="#58595B"/>
<path d="M33.8751 13.0637C33.8751 9.89053 31.32 7.33548 28.1468 7.33548H26.5396V5.72827C26.5396 2.55506 23.9845 0 20.8113 0C19.3277 0 17.9678 0.576947 16.9375 1.52479C15.9073 0.576947 14.5473 0 13.0638 0C9.89054 0 7.33549 2.55506 7.33549 5.72827V7.33548H5.72828C2.55506 7.33548 0 9.89053 0 13.0637C0 16.237 2.55506 18.792 5.72828 18.792H15.0419V28.1056C15.0419 31.2788 17.5969 33.8339 20.7701 33.8339C23.9433 33.8339 26.4984 31.2788 26.4984 28.1056V26.4984H28.1056C31.2788 26.4984 33.8339 23.9433 33.8339 20.7701C33.8339 19.2865 33.2569 17.9266 32.3091 16.8963C33.2981 15.9073 33.8751 14.5473 33.8751 13.0637ZM15.1243 15.0831H5.81069C4.69801 15.0831 3.79138 14.1764 3.79138 13.0637C3.79138 11.9511 4.69801 11.0444 5.81069 11.0444H11.1268V5.72827C11.1268 4.61559 12.0335 3.70895 13.1462 3.70895C14.2589 3.70895 15.1655 4.61559 15.1655 5.72827V15.0831H15.1243ZM28.1468 22.7894H22.8307V28.1056C22.8307 29.2183 21.924 30.1249 20.8113 30.1249C19.6986 30.1249 18.792 29.2183 18.792 28.1056V18.792H28.1056C29.2183 18.792 30.1249 19.6986 30.1249 20.8113C30.1249 21.924 29.2595 22.7894 28.1468 22.7894ZM28.1468 15.0831H18.8332V5.76948C18.8332 4.65679 19.7399 3.75016 20.8525 3.75016C21.9652 3.75016 22.8719 4.65679 22.8719 5.76948V11.0856H28.188C29.3007 11.0856 30.2073 11.9923 30.2073 13.105C30.2073 14.2176 29.2595 15.0831 28.1468 15.0831ZM0.247266 22.5422V27.2402L9.14875 20.2756H3.132L0.247266 22.5422ZM0.247266 28.765V33.463L13.5995 23.0367V20.3168H11.0856L0.247266 28.765ZM0.247266 39.6033L13.5995 29.2595V24.5615L0.247266 34.9878V39.6033Z" fill="#72BF44"/>
<path d="M38.8616 35.2756H39.3973V36.7591C39.1913 36.924 38.9852 37.0476 38.738 37.13C38.4907 37.2125 38.2434 37.2537 37.955 37.2537C37.5841 37.2537 37.2132 37.1712 36.9247 37.0064C36.6362 36.8416 36.389 36.5943 36.2241 36.3058C36.0593 36.0173 35.9769 35.6877 35.9769 35.3168C35.9769 34.9459 36.0593 34.6162 36.2241 34.3277C36.389 34.0392 36.6362 33.792 36.9247 33.6271C37.2132 33.4623 37.5841 33.3799 37.955 33.3799C38.2434 33.3799 38.5319 33.4211 38.7792 33.5447C39.0264 33.6271 39.2325 33.792 39.3973 33.9568L39.0677 34.2865C38.7792 33.998 38.4083 33.8332 37.9962 33.8332C37.7077 33.8332 37.4604 33.8744 37.2132 33.998C36.9659 34.1217 36.8011 34.2865 36.6774 34.5338C36.5538 34.781 36.4714 34.9871 36.4714 35.2756C36.4714 35.564 36.5538 35.8113 36.6774 36.0174C36.8011 36.2234 36.9659 36.4295 37.2132 36.5531C37.4604 36.6767 37.7077 36.7591 37.9962 36.7591C38.3259 36.7591 38.6143 36.6767 38.8616 36.5119V35.2756Z" fill="#58595B"/>
<path d="M40.7985 36.7599C40.51 36.4714 40.3864 36.0593 40.3864 35.5236V33.3806H40.9221V35.4824C40.9221 36.3066 41.293 36.6775 41.9936 36.6775C42.3233 36.6775 42.6117 36.5951 42.7766 36.389C42.9414 36.183 43.065 35.8945 43.065 35.4824V33.3806H43.6008V35.5236C43.6008 36.0593 43.4772 36.4714 43.1887 36.7599C42.9002 37.0484 42.5293 37.172 42.0348 37.172C41.5402 37.172 41.0869 37.0484 40.7985 36.7599Z" fill="#58595B"/>
<path d="M44.6722 33.4218H45.208V36.7187H47.2273V37.172H44.6722V33.4218Z" fill="#58595B"/>
<path d="M47.8455 33.4218H48.3812V37.172H47.8455V33.4218Z" fill="#58595B"/>
<path d="M52.7495 33.4218V37.172H52.2962L50.0296 34.3697V37.172H49.5351V33.4218H49.9884L52.255 36.2241V33.4218H52.7495Z" fill="#58595B"/>
<path d="M54.5628 36.966C54.2743 36.8011 54.027 36.5539 53.8622 36.2654C53.6974 35.9769 53.6149 35.6472 53.6149 35.2763C53.6149 34.9054 53.6974 34.5758 53.8622 34.2873C54.027 33.9988 54.2743 33.7516 54.5628 33.5867C54.8513 33.4219 55.2221 33.3394 55.593 33.3394C55.8815 33.3394 56.17 33.3807 56.4173 33.5043C56.6645 33.5867 56.8706 33.7516 57.0354 33.9576L56.7057 34.2873C56.4172 33.9988 56.0876 33.834 55.6342 33.834C55.3458 33.834 55.0985 33.9164 54.8925 34.04C54.6864 34.1637 54.4804 34.3285 54.3567 34.5758C54.2331 34.7818 54.1507 35.0291 54.1507 35.3175C54.1507 35.606 54.2331 35.8533 54.3567 36.0593C54.4804 36.2654 54.6452 36.4714 54.8925 36.5951C55.0985 36.7187 55.387 36.8011 55.6342 36.8011C56.0463 36.8011 56.4172 36.6363 56.7057 36.3478L57.0354 36.6775C56.8706 36.8836 56.6645 37.0072 56.4173 37.1308C56.17 37.2544 55.9227 37.2957 55.593 37.2957C55.1809 37.2132 54.8513 37.1308 54.5628 36.966Z" fill="#58595B"/>
<path d="M60.9916 33.4218V37.172H60.4559V35.4823H58.313V37.172H57.7772V33.4218H58.313V35.029H60.4559V33.4218H60.9916Z" fill="#58595B"/>
<path d="M62.5164 36.7599C62.2279 36.4714 62.1043 36.0593 62.1043 35.5236V33.3806H62.64V35.4824C62.64 36.3066 63.0109 36.6775 63.7115 36.6775C64.0412 36.6775 64.3297 36.5951 64.4945 36.389C64.6594 36.183 64.783 35.8945 64.783 35.4824V33.3806H65.3187V35.5236C65.3187 36.0593 65.1951 36.4714 64.9066 36.7599C64.6181 37.0484 64.2473 37.172 63.7527 37.172C63.2582 37.172 62.8049 37.0484 62.5164 36.7599Z" fill="#58595B"/>
<path d="M67.5853 35.4823L66.8847 36.1829V37.172H66.3489V33.4218H66.8847V35.5236L68.9452 33.4218H69.5634L67.9562 35.1114L69.6458 37.172H69.0276L67.5853 35.4823Z" fill="#58595B"/>
<path d="M73.7669 33.4213H74.3027V36.7182H76.322V37.1715H73.7669V33.4213Z" fill="#58595B"/>
<path d="M77.5583 36.966C77.2698 36.8011 77.0225 36.5539 76.8577 36.2654C76.6928 35.9769 76.6104 35.6472 76.6104 35.2763C76.6104 34.9054 76.6928 34.5758 76.8577 34.2873C77.0225 33.9988 77.2698 33.7516 77.5583 33.5867C77.8467 33.4219 78.2176 33.3394 78.5885 33.3394C78.9594 33.3394 79.2891 33.4219 79.6188 33.5867C79.9073 33.7516 80.1545 33.9988 80.3194 34.2873C80.4842 34.5758 80.5666 34.9054 80.5666 35.2763C80.5666 35.6472 80.4842 35.9769 80.3194 36.2654C80.1545 36.5539 79.9073 36.8011 79.6188 36.966C79.3303 37.1308 78.9594 37.2132 78.5885 37.2132C78.1764 37.2132 77.8467 37.1308 77.5583 36.966ZM79.3303 36.5539C79.5364 36.4302 79.7424 36.2654 79.866 36.0181C79.9897 35.7709 80.0721 35.5648 80.0721 35.2763C80.0721 34.9879 79.9897 34.7406 79.866 34.5346C79.7424 34.3285 79.5776 34.1224 79.3303 33.9988C79.1242 33.8752 78.877 33.7928 78.5885 33.7928C78.3 33.7928 78.0528 33.8752 77.8467 33.9988C77.6407 34.1224 77.4346 34.2873 77.311 34.5346C77.1874 34.7818 77.1049 34.9879 77.1049 35.2763C77.1049 35.5648 77.1874 35.8121 77.311 36.0181C77.4346 36.2242 77.5995 36.4302 77.8467 36.5539C78.0528 36.6775 78.3 36.7599 78.5885 36.7599C78.8358 36.7187 79.083 36.6775 79.3303 36.5539Z" fill="#58595B"/>
<path d="M83.9871 35.2763H84.5228V36.7599C84.3168 36.9247 84.1107 37.0484 83.8635 37.1308C83.6162 37.2132 83.3689 37.2544 83.0805 37.2544C82.7096 37.2544 82.3387 37.172 82.0502 37.0072C81.7617 36.8423 81.5145 36.5951 81.3496 36.3066C81.1848 36.0181 81.1024 35.6884 81.1024 35.3175C81.1024 34.9466 81.1848 34.617 81.3496 34.3285C81.5145 34.04 81.7617 33.7927 82.0502 33.6279C82.3387 33.4631 82.7096 33.3806 83.0805 33.3806C83.3689 33.3806 83.6574 33.4219 83.9047 33.5455C84.1519 33.6279 84.358 33.7927 84.5228 33.9576L84.1931 34.2873C83.9047 33.9988 83.5338 33.834 83.1217 33.834C82.8332 33.834 82.5859 33.8752 82.3387 33.9988C82.0914 34.1224 81.9266 34.2873 81.8029 34.5345C81.6793 34.7406 81.5969 34.9878 81.5969 35.2763C81.5969 35.5648 81.6793 35.8121 81.8029 36.0181C81.9266 36.2242 82.0914 36.4302 82.3387 36.5539C82.5859 36.6775 82.8332 36.7599 83.1217 36.7599C83.4514 36.7599 83.7398 36.6775 83.9871 36.5126V35.2763Z" fill="#58595B"/>
<path d="M85.5118 33.4218H86.0476V37.172H85.5118V33.4218Z" fill="#58595B"/>
<path d="M87.4488 37.0896C87.2015 37.0072 86.9955 36.8835 86.8306 36.7599L87.0367 36.3478C87.1603 36.4714 87.3664 36.5951 87.5724 36.6775C87.7785 36.7599 88.0257 36.8011 88.273 36.8011C88.6027 36.8011 88.8087 36.7599 88.9736 36.6363C89.1384 36.5126 89.2208 36.389 89.2208 36.2242C89.2208 36.1005 89.1796 35.9769 89.0972 35.8945C89.0148 35.8121 88.8912 35.7709 88.7675 35.7296C88.6439 35.6884 88.4791 35.6472 88.2318 35.5648C87.9433 35.4824 87.7373 35.4412 87.5312 35.3587C87.3664 35.2763 87.2015 35.1939 87.0779 35.0291C86.9542 34.9054 86.9131 34.6994 86.9131 34.4521C86.9131 34.2461 86.9542 34.0812 87.0779 33.9164C87.2015 33.7515 87.3251 33.6279 87.5724 33.5455C87.7785 33.4631 88.0669 33.3806 88.3554 33.3806C88.5615 33.3806 88.8087 33.4218 89.0148 33.4631C89.2208 33.5043 89.4269 33.5867 89.5505 33.7103L89.3857 34.1224C89.2208 34.04 89.056 33.9576 88.8912 33.8752C88.7263 33.834 88.5203 33.7928 88.3554 33.7928C88.0669 33.7928 87.8197 33.834 87.6548 33.9576C87.49 34.0812 87.4076 34.2049 87.4076 34.3697C87.4076 34.4933 87.4488 34.617 87.5312 34.6994C87.6136 34.7818 87.7373 34.823 87.8609 34.9054C87.9845 34.9466 88.1494 34.9879 88.3966 35.0291C88.6851 35.1115 88.8912 35.1527 89.0972 35.2351C89.2621 35.3175 89.4269 35.4 89.5505 35.5648C89.6741 35.6884 89.7154 35.8945 89.7154 36.1417C89.7154 36.3478 89.6741 36.5126 89.5505 36.6775C89.4269 36.8423 89.2621 36.966 89.056 37.0484C88.85 37.1308 88.5615 37.172 88.2318 37.172C87.9845 37.2132 87.7373 37.172 87.4488 37.0896Z" fill="#58595B"/>
<path d="M91.199 33.8751H89.9214V33.4218H93.0122V33.8751H91.7347V37.172H91.199V33.8751Z" fill="#58595B"/>
<path d="M93.6304 33.4218H94.1661V37.172H93.6304V33.4218Z" fill="#58595B"/>
<path d="M95.9382 36.966C95.6497 36.8011 95.4025 36.5539 95.2376 36.2654C95.0728 35.9769 94.9904 35.6472 94.9904 35.2763C94.9904 34.9054 95.0728 34.5758 95.2376 34.2873C95.4025 33.9988 95.6497 33.7516 95.9382 33.5867C96.2267 33.4219 96.5976 33.3394 96.9685 33.3394C97.2569 33.3394 97.5454 33.3807 97.7927 33.5043C98.0399 33.5867 98.246 33.7516 98.4108 33.9576L98.0811 34.2873C97.7927 33.9988 97.463 33.834 97.0097 33.834C96.7212 33.834 96.474 33.9164 96.2679 34.04C96.0618 34.1637 95.8558 34.3285 95.7321 34.5758C95.6085 34.7818 95.5261 35.0291 95.5261 35.3175C95.5261 35.606 95.6085 35.8533 95.7321 36.0593C95.8558 36.2654 96.0206 36.4714 96.2679 36.5951C96.474 36.7187 96.7624 36.8011 97.0097 36.8011C97.4218 36.8011 97.7927 36.6363 98.0811 36.3478L98.4108 36.6775C98.246 36.8836 98.0399 37.0072 97.7927 37.1308C97.5454 37.2132 97.2569 37.2957 96.9685 37.2957C96.5976 37.2132 96.2679 37.1308 95.9382 36.966Z" fill="#58595B"/>
<path d="M105.005 33.7514C105.293 33.9986 105.417 34.2871 105.417 34.6992C105.417 35.1113 105.293 35.441 105.005 35.6471C104.716 35.8531 104.345 35.9768 103.851 35.9768H102.903V37.1306H102.367V33.3805H103.851C104.345 33.4217 104.716 33.5041 105.005 33.7514ZM104.592 35.3586C104.757 35.1938 104.881 34.9877 104.881 34.7404C104.881 34.4932 104.798 34.2459 104.592 34.1223C104.428 33.9574 104.139 33.9162 103.809 33.9162H102.903V35.6059H103.809C104.18 35.5647 104.428 35.4822 104.592 35.3586Z" fill="#58595B"/>
<path d="M108.425 36.224H106.406L105.993 37.1719H105.458L107.147 33.4217H107.683L109.373 37.1719H108.796L108.425 36.224ZM108.219 35.8119L107.395 33.9574L106.57 35.8119H108.219Z" fill="#58595B"/>
<path d="M112.464 37.1719L111.639 36.018C111.557 36.018 111.474 36.018 111.392 36.018H110.444V37.1719H109.909V33.4217H111.392C111.887 33.4217 112.258 33.5453 112.546 33.7514C112.834 33.9986 112.958 34.2871 112.958 34.6992C112.958 34.9877 112.876 35.235 112.752 35.441C112.628 35.6471 112.422 35.8119 112.134 35.8943L113.041 37.1719H112.464ZM112.175 35.3586C112.34 35.1938 112.464 34.9877 112.464 34.7404C112.464 34.4932 112.381 34.2459 112.175 34.1223C112.01 33.9574 111.722 33.9162 111.392 33.9162H110.485V35.6059H111.392C111.722 35.5646 112.01 35.4822 112.175 35.3586Z" fill="#58595B"/>
<path d="M114.524 33.875H113.247V33.4217H116.337V33.875H115.06V37.1719H114.524V33.875Z" fill="#58595B"/>
<path d="M120.17 33.4217V37.1719H119.717L117.45 34.3695V37.1719H116.914V33.4217H117.368L119.634 36.224V33.4217H120.17Z" fill="#58595B"/>
<path d="M124.044 36.7185V37.1719H121.324V33.4217H123.961V33.875H121.86V35.0289H123.755V35.4822H121.86V36.6773H124.044V36.7185Z" fill="#58595B"/>
<path d="M127.423 37.1719L126.599 36.018C126.516 36.018 126.434 36.018 126.352 36.018H125.404V37.1719H124.868V33.4217H126.352C126.846 33.4217 127.217 33.5453 127.505 33.7514C127.794 33.9986 127.918 34.2871 127.918 34.6992C127.918 34.9877 127.835 35.235 127.711 35.441C127.588 35.6471 127.382 35.8119 127.093 35.8943L128 37.1719H127.423ZM127.135 35.3586C127.299 35.1938 127.423 34.9877 127.423 34.7404C127.423 34.4932 127.341 34.2459 127.135 34.1223C126.97 33.9574 126.681 33.9162 126.352 33.9162H125.445V35.6059H126.352C126.681 35.5646 126.928 35.4822 127.135 35.3586Z" fill="#58595B"/>
</svg>
