<svg width="17" height="23" viewBox="0 0 17 23" fill="none" xmlns="http://www.w3.org/2000/svg">
<path d="M8.5 19.8636V23L4.25 18.8182L8.5 14.6364V17.7727C12.0222 17.7727 14.875 14.9657 14.875 11.5C14.875 10.4389 14.6041 9.44568 14.1366 8.5675L15.6878 7.04114C16.5112 8.3375 17 9.85864 17 11.5C17 16.1209 13.1962 19.8636 8.5 19.8636ZM8.5 5.22727C4.97781 5.22727 2.125 8.03432 2.125 11.5C2.125 12.5611 2.39594 13.5543 2.86344 14.4325L1.31219 15.9589C0.48875 14.6625 0 13.1414 0 11.5C0 6.87909 3.80375 3.13636 8.5 3.13636V0L12.75 4.18182L8.5 8.36364V5.22727Z" fill="#72BF44"/>
</svg>
