<svg width="14" height="14" viewBox="0 0 14 14" fill="none" xmlns="http://www.w3.org/2000/svg">
<path d="M8.52895 13.2657C8.71116 13.2675 8.88925 13.2114 9.03761 13.1057C9.18598 12.9999 9.297 12.8498 9.3547 12.6769L13.0175 2.09544C13.0712 1.94026 13.0802 1.77309 13.0434 1.61305C13.0065 1.45301 12.9255 1.30656 12.8093 1.19044C12.6932 1.07432 12.5468 0.993221 12.3867 0.956417C12.2267 0.919613 12.0595 0.928588 11.9043 0.982317L1.32295 4.64519C1.1486 4.70556 0.997783 4.8195 0.892072 4.97073C0.786361 5.12196 0.731162 5.30274 0.734365 5.48722C0.737569 5.67171 0.799009 5.85046 0.909906 5.99793C1.0208 6.1454 1.17548 6.25404 1.35183 6.30832L6.13658 7.78057C6.15608 7.78655 6.17381 7.79721 6.18824 7.81162C6.20266 7.82604 6.21334 7.84376 6.21933 7.86325L7.69152 12.648C7.744 12.8254 7.85216 12.9812 8.00002 13.0924C8.14787 13.2036 8.32758 13.2643 8.51258 13.2656L8.52895 13.2657ZM12.1931 1.68344C12.2092 1.6837 12.225 1.68713 12.2398 1.69355C12.2545 1.69996 12.2679 1.70923 12.279 1.72082C12.2961 1.73706 12.3081 1.75799 12.3134 1.78099C12.3186 1.804 12.317 1.82805 12.3087 1.85013L8.64595 12.4316C8.63878 12.4568 8.62327 12.4788 8.60195 12.4941C8.58064 12.5094 8.55477 12.517 8.52858 12.5157L8.52564 12.5156C8.49894 12.5166 8.47271 12.5084 8.45135 12.4924C8.42999 12.4763 8.4148 12.4534 8.40833 12.4275L6.93608 7.64269C6.89416 7.50625 6.81946 7.38215 6.71852 7.28123C6.61758 7.18031 6.49347 7.10565 6.35702 7.06376L1.57239 5.59157C1.54719 5.58381 1.52508 5.56829 1.50923 5.54722C1.49339 5.52614 1.48461 5.50059 1.48416 5.47423C1.48371 5.44786 1.49161 5.42203 1.50673 5.40043C1.52184 5.37882 1.54341 5.36255 1.56833 5.35394L12.1498 1.69113C12.1637 1.68615 12.1783 1.68355 12.1931 1.68344Z" fill="#58595B"/>
</svg>
